# xmcd
#
# Track frame offsets: 
#        150
#        11184
#        24445
#        39859
#        57534
#        69705
#        75934
#        90733
#        103201
#        116051
#        130730
#        144883
#        157722
#        170620
#        183326
#        209276
#        222570
#
# Disc length: 3158 seconds
#
# Revision: 1
# Processed by: cddbd v1.5.2PL0 Copyright (c) Steve Scherf et al.
# Submitted via: ExactAudioCopy v1.3
#
DISCID=e60c5411
DTITLE=Pannama Limited Jug Band - Pannama Limited Jug Band
DYEAR=1969
DGENRE=Folk
TTITLE0=38 Plug
TTITLE1=Going To Germany
TTITLE2=Canned Heat
TTITLE3=Viola Lee
TTITLE4=Alabamy Bound
TTITLE5=Overseas Stomp
TTITLE6=Round and Round
TTITLE7=Cocaine Habit
TTITLE8=Wildcat Squall
TTITLE9=Don't You Ease Me In
TTITLE10=Rich Girl
TTITLE11=Sundown
TTITLE12=Jailhouse
TTITLE13=Guitar King
TTITLE14=Railroad
TTITLE15=Lady Of Shallott
TTITLE16=Future Blues
EXTD=
EXTT0=
EXTT1=
EXTT2=
EXTT3=
EXTT4=
EXTT5=
EXTT6=
EXTT7=
EXTT8=
EXTT9=
EXTT10=
EXTT11=
EXTT12=
EXTT13=
EXTT14=
EXTT15=
EXTT16=
PLAYORDER=
